<?xml version="1.0" encoding="UTF-8"?>
<svg xmlns="http://www.w3.org/2000/svg" xmlns:xlink="http://www.w3.org/1999/xlink" width="341px" height="341px" viewBox="0 0 341 341" perserveAspectRatio="xMidyMid meet" version="1.1">
<g id="surface1">
<path style=" stroke:none;fill-rule:nonzero;fill:rgb(0%,0%,0%);fill-opacity:1;" d="M 151.320312 72.195312 C 141.0625 101.765625 132.003906 127.074219 131.070312 128.675781 C 129.875 130.804688 116.019531 136.132812 74.0625 150.652344 C 43.558594 161.175781 18.648438 170.101562 18.648438 170.5 C 18.648438 170.898438 43.558594 179.824219 74.0625 190.347656 C 115.621094 204.867188 129.875 210.328125 131.070312 212.324219 C 132.003906 213.925781 141.0625 239.234375 151.320312 268.671875 C 161.441406 298.242188 170.101562 322.351562 170.5 322.351562 C 170.898438 322.351562 179.558594 298.242188 189.679688 268.804688 C 199.9375 239.234375 208.996094 213.925781 209.796875 212.457031 C 210.992188 210.460938 226.179688 204.734375 266.9375 190.480469 C 297.441406 179.824219 322.351562 170.898438 322.351562 170.5 C 322.351562 169.832031 312.226562 166.238281 243.097656 142.394531 C 226.3125 136.53125 211.925781 131.203125 211.128906 130.539062 C 210.328125 129.871094 201.003906 104.429688 190.347656 73.925781 C 179.824219 43.558594 170.898438 18.648438 170.5 18.648438 C 170.101562 18.648438 161.441406 42.757812 151.320312 72.195312 Z M 151.320312 72.195312 "/>
<path style=" stroke:none;fill-rule:nonzero;fill:rgb(0%,0%,0%);fill-opacity:1;" d="M 62.605469 63.136719 C 62.605469 63.40625 70.066406 78.988281 79.121094 97.769531 C 88.582031 117.085938 96.574219 131.871094 97.503906 131.738281 C 98.4375 131.738281 104.699219 129.738281 111.226562 127.476562 L 123.214844 123.210938 L 127.476562 111.222656 C 129.738281 104.5625 131.738281 98.4375 131.738281 97.503906 C 131.871094 96.570312 117.085938 88.578125 97.769531 79.121094 C 63.804688 62.738281 62.605469 62.207031 62.605469 63.136719 Z M 62.605469 63.136719 "/>
<path style=" stroke:none;fill-rule:nonzero;fill:rgb(0%,0%,0%);fill-opacity:1;" d="M 242.828125 79.253906 C 224.046875 88.445312 209.128906 96.570312 209.261719 97.503906 C 209.261719 98.4375 211.261719 104.5625 213.523438 111.222656 L 217.789062 123.078125 L 229.777344 127.476562 C 236.4375 129.738281 242.5625 131.738281 243.496094 131.738281 C 244.828125 131.871094 278.394531 65.800781 278.394531 63.136719 C 278.394531 61.9375 274.929688 63.539062 242.828125 79.253906 Z M 242.828125 79.253906 "/>
<path style=" stroke:none;fill-rule:nonzero;fill:rgb(0%,0%,0%);fill-opacity:1;" d="M 79.257812 243.363281 C 70.066406 262.144531 62.738281 277.726562 63.136719 277.996094 C 64.203125 279.058594 131.871094 245.09375 131.738281 243.496094 C 131.738281 242.5625 129.738281 236.300781 127.476562 229.773438 L 123.214844 217.785156 L 111.226562 213.523438 C 104.699219 211.261719 98.4375 209.261719 97.503906 209.261719 C 96.574219 209.128906 88.445312 224.179688 79.257812 243.363281 Z M 79.257812 243.363281 "/>
<path style=" stroke:none;fill-rule:nonzero;fill:rgb(0%,0%,0%);fill-opacity:1;" d="M 229.777344 213.523438 L 217.789062 217.921875 L 213.523438 229.773438 C 211.261719 236.433594 209.261719 242.5625 209.261719 243.496094 C 209.128906 245.09375 276.796875 279.058594 277.996094 277.996094 C 279.0625 276.796875 245.09375 209.128906 243.496094 209.261719 C 242.5625 209.261719 236.4375 211.261719 229.777344 213.523438 Z M 229.777344 213.523438 "/>
</g>
</svg>
